<svg id="그룹_471383" data-name="그룹 471383" xmlns="http://www.w3.org/2000/svg" xmlns:xlink="http://www.w3.org/1999/xlink" width="18.171" height="18.157" viewBox="0 0 18.171 18.157">
  <defs>
    <clipPath id="clip-path">
      <rect id="사각형_347887" data-name="사각형 347887" width="18.171" height="18.157"/>
    </clipPath>
  </defs>
  <g id="그룹_471382" data-name="그룹 471382" transform="translate(0 0)" clip-path="url(#clip-path)">
    <path id="패스_85475" data-name="패스 85475" d="M18.642,16.723a4.393,4.393,0,0,1,3.08-1.758,6.468,6.468,0,0,1,2.354.093,3.36,3.36,0,0,1,2.7,2.54,7.437,7.437,0,0,1,.255,1.421c.036.428.058.857.057,1.288q-.006,3.134,0,6.268c0,.026,0,.052,0,.079-.005.2-.005.2-.209.2q-1.541,0-3.081,0c-.241,0-.243,0-.243-.245q0-2.278,0-4.556c0-.535.02-1.07-.031-1.6a4.049,4.049,0,0,0-.218-1.026,1.945,1.945,0,0,0-2.393-1.383,2.312,2.312,0,0,0-1.978,1.953,5.027,5.027,0,0,0-.119,1.1q0,2.739,0,5.478c0,.31.025.287-.281.287H15.558c-.053,0-.106,0-.158,0a.109.109,0,0,1-.129-.125c0-.061,0-.123,0-.184V15.354c0-.044,0-.088,0-.131-.012-.121.032-.179.163-.169s.246,0,.369,0h2.423c.382,0,.382,0,.382.369s0,.72,0,1.08a.309.309,0,0,0,.036.219" transform="translate(-8.916 -8.7)"/>
    <path id="패스_85476" data-name="패스 85476" d="M1.038,21.185V15.632a1.426,1.426,0,0,0,0-.184c-.019-.147.056-.175.184-.175q1.592,0,3.184,0c.138,0,.192.044.179.18-.006.061,0,.123,0,.184V26.716c0,.053,0,.106,0,.158-.006.2-.006.2-.21.2q-1.539,0-3.079,0c-.255,0-.256,0-.256-.259q0-2.816,0-5.632" transform="translate(-0.604 -8.919)"/>
    <path id="패스_85477" data-name="패스 85477" d="M2.2,4.423A2.211,2.211,0,1,1,4.422,2.23,2.208,2.208,0,0,1,2.2,4.423" transform="translate(0 0)"/>
  </g>
</svg>
