<svg id="그룹_470832" data-name="그룹 470832" xmlns="http://www.w3.org/2000/svg" width="90.242" height="71.659" viewBox="0 0 90.242 71.659">
  <g id="그룹_466103" data-name="그룹 466103" transform="translate(0 0)">
    <g id="합치기_1" data-name="합치기 1" fill="none">
      <path d="M0,71.659V9.083H38.29V0H75.015V9.083H90.242V59.817H39.186V71.659Z" stroke="none"/>
      <path d="M 35.18566513061523 67.65950012207031 L 35.18566513061523 55.81726837158203 L 86.24246215820312 55.81726837158203 L 86.24246215820312 13.0832691192627 L 71.01460266113281 13.0832691192627 L 71.01460266113281 4.000007629394531 L 42.29000473022461 4.000007629394531 L 42.29000473022461 13.0832691192627 L 4.000004291534424 13.0832691192627 L 4.000004291534424 67.65950012207031 L 35.18566513061523 67.65950012207031 M 39.18566513061523 71.65950012207031 L 4.124568022234598e-06 71.65950012207031 L 4.124568022234598e-06 9.083269119262695 L 38.29000473022461 9.083269119262695 L 38.29000473022461 7.784798981447238e-06 L 75.01460266113281 7.784798981447238e-06 L 75.01460266113281 9.083269119262695 L 90.24246215820312 9.083269119262695 L 90.24246215820312 59.81726837158203 L 39.18566513061523 59.81726837158203 L 39.18566513061523 71.65950012207031 Z" stroke="none" fill="#5a5a5a"/>
    </g>
  </g>
  <g id="사각형_340372" data-name="사각형 340372" transform="translate(10.248 20.836)" fill="none" stroke="#5a5a5a" stroke-width="4">
    <rect width="19.096" height="19.096" stroke="none"/>
    <rect x="2" y="2" width="15.096" height="15.096" fill="none"/>
  </g>
</svg>
